<svg xmlns="http://www.w3.org/2000/svg" enable-background="new 0 0 64 64" viewBox="0 0 64 64"><g id="Audit"><path fill="#1b45af" d="M45,47.8V55c0,2.2-1.8,4-4,4H9c-2.2,0-4-1.8-4-4V11c0-2.2,1.8-4,4-4h10v4H9v44h32v-8c0.7-0.3,1.4-0.7,2.1-1.1
		L45,47.8z"/><path fill="#cee6f4" d="M23,35c0,7.2,5.8,13,13,13c1.8,0,3.5-0.4,5-1v8H9V11h10c0,0.5,0.5,1,1,1h10c0.5,0,1-0.5,1-1h10v12
		c-1-0.4-2-0.7-3.1-0.8c-0.2,0-0.4-0.1-0.6-0.1C36.9,22,36.4,22,36,22C28.8,22,23,27.8,23,35z"/><path fill="#acd5ea" d="M41,55H9v-9.4c17.7,0,32-14.3,32-32h0V55z"/><path fill="#1b45af" d="M45,11v14.6c-1.2-1.1-2.5-2-4-2.6V11H31V9c0-1.1,0.9-2,2-2h8C43.2,7,45,8.8,45,11z"/><path fill="#2c7013" d="M14.9 22.7L14.9 22.7c-.3 0-.5-.1-.7-.3l-2.1-2.1c-.4-.4-.4-1 0-1.4.4-.4 1-.4 1.4 0l1.4 1.4 3.5-3.5c.4-.4 1-.4 1.4 0s.4 1 0 1.4l-4.2 4.2C15.5 22.6 15.2 22.7 14.9 22.7zM14.9 36.7L14.9 36.7c-.3 0-.5-.1-.7-.3l-2.1-2.1c-.4-.4-.4-1 0-1.4.4-.4 1-.4 1.4 0l1.4 1.4 3.5-3.5c.4-.4 1-.4 1.4 0s.4 1 0 1.4l-4.2 4.2C15.5 36.6 15.2 36.7 14.9 36.7z"/><path fill="#464c54" d="M18,45h-5c-0.5,0-1,0.5-1,1v5c0,0.5,0.5,1,1,1h5c0.5,0,1-0.5,1-1v-5C19,45.5,18.5,45,18,45z M17,50h-3v-3h3V50
		z"/><rect width="3" height="3" x="14" y="47" fill="#76b4e2"/><path fill="#d1b339" d="M56.6,51.6L47,42c1.3-2,2-4.4,2-7c0-3.7-1.5-7-4-9.4c-1.2-1.1-2.5-2-4-2.6c-0.2-0.1-0.3-0.1-0.5-0.2
		c-0.1,0-0.2-0.1-0.3-0.1c-0.1,0-0.3-0.1-0.4-0.1c-0.3-0.1-0.6-0.2-0.8-0.2c-0.4-0.1-0.8-0.2-1.2-0.2c-0.2,0-0.4-0.1-0.5-0.1
		c-0.1,0-0.2,0-0.3,0c-0.1,0-0.2,0-0.3,0c-0.2,0-0.4,0-0.7,0c-7.2,0-13,5.8-13,13s5.8,13,13,13c0.2,0,0.4,0,0.7,0c0.2,0,0.4,0,0.7,0
		c0.2,0,0.4,0,0.5-0.1c0.4,0,0.8-0.1,1.2-0.2c0.4-0.1,0.8-0.2,1.2-0.4c0.1,0,0.2-0.1,0.3-0.1c0.2-0.1,0.3-0.1,0.5-0.2
		c0.7-0.3,1.4-0.7,2.1-1.1l9.6,9.6c1.1,1.1,2.8,1.1,3.9,0C57.7,54.5,57.7,52.7,56.6,51.6z M41,42.5c-0.2,0.1-0.4,0.2-0.5,0.3
		C40.3,42.9,40.2,43,40,43c-0.1,0.1-0.2,0.1-0.4,0.2c-0.1,0-0.1,0.1-0.2,0.1c-0.1,0.1-0.3,0.1-0.4,0.2c0,0,0,0,0,0h0
		c-0.1,0-0.2,0.1-0.3,0.1C37.8,43.9,36.9,44,36,44c-5,0-9-4-9-9s4-9,9-9c0.9,0,1.8,0.1,2.6,0.4c0.1,0,0.2,0.1,0.3,0.1h0c0,0,0,0,0,0
		c0.1,0,0.3,0.1,0.4,0.2c0.1,0,0.2,0.1,0.2,0.1c0.1,0.1,0.2,0.1,0.4,0.2c0.1,0.1,0.3,0.1,0.4,0.2c0.2,0.1,0.4,0.2,0.5,0.3
		c2.4,1.6,4,4.4,4,7.5S43.4,40.9,41,42.5z"/><path fill="#5ea2cc" d="M45,35c0,3.1-1.6,5.9-4,7.5c-1.4,1-3.2,1.5-5,1.5c-3.3,0-6.1-1.7-7.7-4.3c0,0,0,0,0,0c-0.8-1.4-1.3-3-1.3-4.7
		c0-5,4-9,9-9c1.7,0,3.3,0.5,4.7,1.3c0.1,0.1,0.2,0.1,0.3,0.2C43.4,29.1,45,31.9,45,35z"/><path fill="#76b4e2" d="M42,32c0,3.1-1.6,5.9-4,7.5c-1.4,1-3.2,1.5-5,1.5c-1.7,0-3.3-0.5-4.7-1.3c0,0,0,0,0,0c-0.8-1.4-1.3-3-1.3-4.7
		c0-5,4-9,9-9c1.7,0,3.3,0.5,4.7,1.3C41.5,28.7,42,30.3,42,32z"/><path fill="#30363f" d="M37 19H24c-.6 0-1-.4-1-1s.4-1 1-1h13c.6 0 1 .4 1 1S37.6 19 37 19zM28 23h-4c-.6 0-1-.4-1-1s.4-1 1-1h4c.6 0 1 .4 1 1S28.6 23 28 23z"/><path fill="#0a2872" d="M49 11v24c0-3.7-1.5-7-4-9.4V11c0-2.2-1.8-4-4-4h4C47.2 7 49 8.8 49 11zM49 51.8V55c0 2.2-1.8 4-4 4h-4c2.2 0 4-1.8 4-4v-7.2L49 51.8zM49 35v9l-2-2C48.3 40 49 37.6 49 35z"/><path fill="#d1b339" d="M30,12H20c-0.5,0-1-0.5-1-1V7c0-1.1,0.9-2,2-2h10c-1.1,0-2,0.9-2,2v4C29,11.5,29.5,12,30,12z"/><path fill="#aa9335" d="M34,7h-1c-1.1,0-2,0.9-2,2v2c0,0.5-0.5,1-1,1s-1-0.5-1-1V7c0-1.1,0.9-2,2-2h1C33.1,5,34,5.9,34,7z"/></g></svg>